<?xml version="1.0" ?>
<svg data-name="Layer 1" id="Layer_1" viewBox="0 0 512 512" xmlns="http://www.w3.org/2000/svg">
    <title/>
    <path d="M466.54,263.7c-.57.21-59.05,20.9-210.53,20.9S46,263.91,45.46,263.7a5.64,5.64,0,0,0-3.89,10.59c1.42.53,22.58,8.08,72,14.11-.1,9.46-.15,15.66-.1,19.82H102.85a5.65,5.65,0,0,0-4.66,2.46l-44,64.57A5.62,5.62,0,0,0,55.55,383l31.27,22.71a5.65,5.65,0,0,0,7.73-1.05l7.08-8.88v72.68a5.65,5.65,0,0,0,5.64,5.64H221.9a5.65,5.65,0,0,0,5.64-5.64V395.75l7.09,8.9a5.66,5.66,0,0,0,7.73,1L273.62,383a5.63,5.63,0,0,0,1.34-7.73l-44-64.57a5.61,5.61,0,0,0-4.65-2.46h-7.17V295.47c11.63.27,23.89.42,36.86.42q20.22,0,38.25-.46V455.9a5.64,5.64,0,0,0,5.64,5.64h46.73a5.64,5.64,0,0,0,5.64-5.6c.29-40,8.21-99.08,24.24-99.08s23.94,59.12,24.23,99.08a5.64,5.64,0,0,0,5.64,5.6h46.75a5.65,5.65,0,0,0,5.64-5.64V280.67a5.56,5.56,0,0,0-.73-2.75c7.87-2,11.8-3.41,12.39-3.63a5.64,5.64,0,0,0-3.89-10.59Zm-204,113.37L240.08,393.4,226.3,376.1a5.63,5.63,0,0,0-10,3.52V462.8H112.91V379.62a5.64,5.64,0,0,0-3.77-5.33,5.58,5.58,0,0,0-6.27,1.82L89.09,393.4,66.61,377.07l39.22-57.57h22.83c6.64,18.3,26.37,22.6,35.81,22.72,9.39-.17,29.41-4.43,36-22.72h22.83Zm-54.69-68.85H196.28a5.63,5.63,0,0,0-5.51,4.41c-4.13,18.47-25.37,18.22-26.3,18.3-1.1-.05-21.93.27-26.07-18.3a5.63,5.63,0,0,0-5.51-4.41h-8.18c0-4.56,0-11.55.09-18.53,22.42,2.41,49.9,4.44,83.07,5.47Zm239.62-27.55V450.26H411.94c-.61-26.64-5-104.68-35.43-104.68s-34.83,78-35.44,104.68H305.54V295.12c72.49-2.33,117.61-9.45,142-14.73C447.5,280.48,447.49,280.58,447.49,280.67Z"/>
    <path d="M74.09,77.36A5.64,5.64,0,0,0,68.45,83v46.86l-13.31,5.48a27.88,27.88,0,1,0,21.23,51.55l30.56-12.58a27.79,27.79,0,0,0,17.26-25.78V83a5.64,5.64,0,0,0-5.64-5.64H101v-16c20.27,2.84,46.26,5.53,78.79,7.24V87.17h-16.3a5.64,5.64,0,0,0-5.65,5.64v46.86l-13.29,5.48a27.88,27.88,0,1,0,21.23,51.55l30.55-12.58a27.8,27.8,0,0,0,17.28-25.77V92.81A5.64,5.64,0,0,0,208,87.17h-16.9V69.1c19.44.85,41,1.35,64.95,1.35q12.9,0,24.91-.19V83.83l-11.84,2.41A5.66,5.66,0,0,0,265,89.55L213.8,209.48a5.64,5.64,0,0,0,2.66,7.26l28.87,14.45a5.62,5.62,0,0,0,7.53-2.47l35.21-68.44v89.91a5.64,5.64,0,0,0,5.64,5.64h100a5.63,5.63,0,0,0,5.64-5.64V160.28l35.21,68.44a5.65,5.65,0,0,0,7.54,2.47L471,216.74a5.64,5.64,0,0,0,2.66-7.26L422.44,89.55a5.67,5.67,0,0,0-4.05-3.31L405.93,83.7V62c44.06-5.84,63.15-12.66,64.5-13.15a5.65,5.65,0,0,0-3.89-10.6C466,38.47,407.49,59.17,256,59.17S46,38.47,45.46,38.26a5.65,5.65,0,0,0-3.89,10.6c1.17.43,15.65,5.6,48.13,10.77V77.36Zm128.22,81A16.54,16.54,0,0,1,192,173.69l-30.55,12.58a16.88,16.88,0,0,1-21.67-9,16.56,16.56,0,0,1,9-21.66l16.79-6.92a5.62,5.62,0,0,0,3.5-5.21v-45h33.19ZM461.21,209l-19.13,9.57-43.32-84.21A5.64,5.64,0,0,0,388.11,137V244.55H299.35V137a5.64,5.64,0,0,0-10.65-2.58L245.38,218.6,226.26,209l48-112.32L287.59,94l.21,0,25.55-5.2L339,128.58a5.65,5.65,0,0,0,9.49,0l25.65-39.84,39.1,8ZM394.65,81.4l-22-4.49a5.67,5.67,0,0,0-5.88,2.48l-23,35.71-23-35.71a5.63,5.63,0,0,0-5.88-2.48L292.2,81.53V70.05c42.48-1,76.25-3.57,102.45-6.63ZM112.91,148.53a16.56,16.56,0,0,1-10.27,15.35L72.08,176.46a16.86,16.86,0,0,1-21.67-9,16.64,16.64,0,0,1,9-21.68l16.8-6.92a5.62,5.62,0,0,0,3.5-5.21v-45h33.18Z"/>
</svg>