<?xml version="1.0" ?>
<svg xmlns:xlink="http://www.w3.org/1999/xlink" style="enable-background:new 0 0 64 64;" version="1.1"
     viewBox="0 0 64 64"
     xml:space="preserve" xmlns="http://www.w3.org/2000/svg"><style type="text/css">
	.st0{fill:none;stroke:#000000;stroke-width:2;stroke-linecap:round;stroke-linejoin:round;stroke-miterlimit:10;}
	.st1{fill:none;stroke:#000000;stroke-width:2;stroke-miterlimit:10;}
</style>
    <g id="Layer_1"/>
    <g id="Layer_2"><path class="st0" d="M30.4,10.3c0.2,0.6,0.3,1.3,0.3,1.9c0,0.8-0.1,1.5-0.4,2.2"/>
        <path class="st0"
              d="M28.1,17.7c-1.2,1-2.7,1.5-4.3,1.5c-3.8,0-6.9-3.1-6.9-6.9s3.1-6.9,6.9-6.9c0.8,0,1.5,0.1,2.3,0.4"/>
        <g><path class="st0" d="M40.9,45l1.4,3.5l1-0.2c2.2-0.3,4.2,1.2,4.6,3.4c0.3,2.2-1.2,4.2-3.4,4.5l-4.2,0.6c-0.2,0-0.4,0-0.6,0    c-1.6,0-3.1-1-3.7-2.6L35.8,54"/></g>
        <path class="st0"
              d="M13.6,31.8C16.4,29.4,20,28,23.9,28c8.6,0,15.6,7,15.6,15.6s-7,15.6-15.6,15.6c-0.8,0-1.7-0.1-2.5-0.2"/>
        <path class="st0" d="M9.4,49.2c-0.7-1.7-1-3.6-1-5.6c0-2.6,0.7-5.1,1.8-7.3"/>
        <path class="st0" d="M13.9,55.5c-1.1-0.9-2.1-2-2.9-3.3"/>
        <circle class="st0" cx="23.9" cy="43.6" r="2.5"/>
        <g><path class="st0" d="M20.8,22.6l0.9-0.2c1.4-0.2,2.7,0.7,3,2.1s-0.7,2.7-2.1,3l-11.4,2l5.8,7c0.9,1.1,0.7,2.7-0.3,3.6    c-1.1,0.9-2.7,0.7-3.6-0.3L4.6,29.4C4.3,29,4.1,28.6,4,28.2c-0.1-0.4,0-0.9,0.1-1.3c0.3-0.9,1.1-1.5,2-1.6l10.7-1.9"/></g></g></svg>