<svg xmlns="http://www.w3.org/2000/svg" version="1.0" preserveAspectRatio="xMidYMid meet"
     viewBox="38 36.56 1287.03 254.03">
    <metadata>Created by potrace 1.10, written by Peter Selinger 2001-2011</metadata>
    <g transform="translate(0.000000,546.000000) scale(0.100000,-0.100000)" fill="#000000" stroke="none">
        <path d="M7484 5092 c-12 -2 -28 -11 -36 -20 -13 -16 -21 -34 -63 -142 -10 -25 -23 -58 -30 -75 -7 -16 -21 -50 -30 -75 -9 -25 -23 -58 -30 -75 -7 -16 -20 -50 -30 -75 -10 -25 -23 -58 -30 -75 -7 -16 -21 -50 -30 -75 -9 -25 -23 -58 -30 -75 -7 -16 -20 -50 -30 -75 -10 -25 -23 -58 -30 -75 -7 -16 -21 -50 -30 -75 -10 -25 -23 -58 -30 -75 -7 -16 -21 -50 -30 -75 -10 -25 -23 -58 -30 -75 -15 -35 -70 -172 -92 -230 -9 -22 -21 -53 -28 -70 -7 -16 -21 -50 -30 -75 -10 -25 -23 -58 -30 -75 -7 -16 -21 -50 -30 -75 -9 -25 -21 -52 -26 -60 -5 -8 -12 -22 -15 -30 -3 -8 -12 -30 -20 -48 -13 -31 -13 -37 8 -75 21 -38 27 -42 67 -45 34 -3 49 2 67 19 13 12 24 28 24 35 0 14 21 66 46 117 8 16 14 35 14 42 0 7 6 26 14 42 8 15 22 48 31 73 10 25 23 59 30 75 7 17 21 50 30 75 10 25 23 59 30 75 7 17 20 48 28 70 30 81 79 201 93 228 8 16 14 35 14 42 0 7 6 26 14 42 14 26 57 132 93 228 9 22 21 54 28 70 7 17 20 49 29 73 40 105 49 128 55 142 5 8 18 48 30 88 28 90 46 92 72 7 10 -33 23 -68 29 -77 5 -10 10 -26 10 -36 0 -10 7 -27 15 -38 8 -10 15 -27 15 -36 0 -9 7 -30 15 -47 8 -17 22 -45 30 -62 8 -17 15 -37 15 -46 0 -8 6 -27 14 -41 8 -15 22 -47 31 -72 22 -56 43 -106 61 -143 8 -16 14 -35 14 -44 0 -8 6 -27 14 -41 8 -15 22 -47 31 -72 10 -25 23 -58 30 -75 7 -16 21 -50 30 -75 9 -25 23 -58 30 -75 7 -16 19 -48 28 -70 8 -22 22 -60 32 -85 21 -56 43 -107 61 -143 8 -16 14 -35 14 -44 0 -8 6 -27 14 -41 24 -47 46 -102 46 -116 0 -7 10 -25 23 -39 18 -21 32 -27 63 -27 42 0 60 12 84 59 12 24 13 22 -36 139 -8 17 -20 47 -28 65 -7 17 -21 52 -31 77 -10 25 -23 59 -30 75 -7 17 -21 50 -30 75 -9 25 -23 59 -30 75 -7 17 -20 50 -30 75 -9 25 -23 59 -30 75 -7 17 -20 50 -30 75 -9 25 -23 57 -31 72 -8 14 -14 33 -14 41 0 9 -6 28 -14 44 -18 38 -40 88 -61 143 -9 25 -23 59 -30 75 -7 17 -20 50 -30 75 -9 25 -23 58 -31 73 -8 16 -14 35 -14 42 0 7 -6 26 -14 42 -19 38 -40 89 -61 143 -9 25 -23 58 -31 73 -8 16 -14 35 -14 42 0 7 -6 26 -14 42 -8 15 -22 47 -30 71 -54 143 -74 165 -142 154z"/>
        <path d="M3200 5069 c-25 -4 -71 -8 -102 -8 -32 -1 -72 -7 -90 -15 -54 -22 -101 -38 -130 -43 -15 -3 -33 -11 -39 -19 -6 -8 -17 -14 -23 -14 -19 0 -136 -79 -198 -133 -74 -65 -153 -171 -197 -262 -19 -38 -40 -82 -47 -97 -8 -14 -14 -35 -14 -46 0 -11 -6 -35 -14 -53 -8 -19 -22 -92 -31 -164 -16 -126 -16 -134 3 -257 11 -69 25 -135 31 -147 6 -11 11 -29 11 -41 0 -12 6 -34 14 -48 8 -15 29 -59 48 -98 43 -86 126 -202 170 -237 18 -14 51 -42 72 -61 22 -20 58 -45 80 -57 23 -11 55 -29 71 -40 17 -10 35 -20 40 -22 66 -24 85 -30 115 -36 19 -4 45 -13 57 -19 12 -7 51 -12 87 -12 36 0 89 -5 118 -11 60 -13 222 2 293 27 23 8 49 14 59 14 10 0 30 6 44 14 15 7 62 31 105 52 102 51 111 56 154 90 115 92 236 240 286 349 10 22 25 52 33 67 8 15 17 49 20 75 5 39 2 53 -16 76 -17 22 -30 27 -64 27 -50 0 -67 -15 -91 -80 -77 -207 -213 -358 -414 -462 -30 -15 -60 -28 -67 -28 -8 0 -28 -6 -46 -14 -18 -8 -77 -22 -131 -32 -82 -14 -110 -15 -165 -6 -37 7 -92 15 -122 18 -30 4 -67 13 -82 20 -15 8 -36 14 -48 14 -20 0 -95 38 -170 85 -57 37 -144 125 -194 197 -25 37 -46 71 -46 76 0 6 -13 37 -30 70 -16 34 -30 72 -30 86 0 14 -7 43 -16 65 -12 31 -15 68 -11 188 2 81 10 168 17 193 22 77 72 193 109 250 36 55 163 190 191 203 8 4 29 16 45 26 46 30 110 61 124 61 7 0 27 6 44 14 40 18 219 46 295 46 31 0 73 -5 92 -11 19 -5 55 -14 80 -18 64 -12 156 -48 215 -84 65 -40 168 -124 201 -164 21 -27 46 -56 54 -65 17 -19 80 -142 106 -208 10 -25 27 -53 38 -62 31 -26 78 -23 111 8 25 23 27 30 22 75 -3 27 -13 62 -21 77 -8 15 -24 47 -36 72 -28 60 -36 72 -101 160 -32 41 -77 94 -100 116 -204 194 -531 306 -769 263z"/>
        <path d="M11578 5064 c-57 -30 -62 -78 -16 -150 41 -63 42 -63 113 -179 33 -53 68 -108 77 -123 10 -15 21 -34 25 -42 4 -8 25 -41 47 -75 23 -33 45 -68 51 -77 5 -9 43 -70 83 -135 40 -65 78 -127 85 -137 7 -11 32 -49 55 -85 l44 -65 -3 -411 c-2 -225 0 -416 5 -424 15 -24 72 -42 100 -31 57 21 57 17 54 501 l-3 444 -46 65 c-25 36 -48 72 -52 80 -4 8 -15 27 -25 42 -9 15 -37 59 -62 98 -25 39 -52 82 -60 95 -8 13 -28 45 -44 72 -16 26 -53 85 -83 130 -29 45 -53 84 -53 87 0 3 -19 34 -43 69 -24 34 -47 69 -51 77 -8 18 -22 40 -59 97 -15 24 -27 47 -27 53 0 10 -59 41 -77 40 -4 -1 -20 -7 -35 -16z"/>
        <path d="M12003 5065 c-64 -28 -70 -83 -15 -167 27 -42 164 -270 181 -301 9 -16 21 -36 26 -45 35 -58 62 -100 73 -117 6 -11 16 -29 21 -41 5 -11 21 -34 36 -52 34 -41 90 -45 123 -9 12 13 22 26 22 30 0 4 61 108 135 231 74 124 135 226 135 229 0 2 20 35 45 73 49 74 55 107 25 142 -46 56 -121 46 -154 -20 -18 -36 -27 -51 -68 -116 -16 -24 -28 -45 -28 -47 0 -4 -31 -58 -100 -175 -5 -8 -21 -39 -35 -69 -24 -52 -26 -53 -48 -39 -12 9 -24 23 -26 33 -2 15 -70 138 -101 185 -6 8 -15 24 -20 35 -6 11 -19 34 -30 50 -10 17 -31 54 -47 83 -34 65 -71 109 -98 116 -11 3 -34 -1 -52 -9z"/>
        <path d="M13125 5068 c-23 -13 -41 -34 -55 -63 -6 -11 -19 -33 -30 -50 -11 -16 -23 -37 -27 -45 -4 -8 -25 -41 -48 -75 -23 -33 -44 -67 -48 -75 -4 -8 -15 -27 -25 -41 -9 -15 -37 -59 -62 -98 -25 -40 -52 -83 -60 -96 -8 -13 -41 -66 -73 -117 -32 -51 -80 -127 -108 -168 -27 -41 -52 -82 -56 -90 -4 -8 -20 -34 -35 -56 l-28 -42 0 -431 c0 -475 -1 -468 61 -490 36 -12 73 -1 100 32 18 21 19 44 18 438 l-1 415 44 65 c47 69 61 93 78 124 6 11 18 32 28 46 9 15 37 59 62 98 25 40 53 84 62 99 9 15 23 37 30 49 17 28 128 208 148 238 39 61 106 168 116 186 7 12 17 26 23 32 27 27 3 89 -46 116 -27 14 -42 14 -68 -1z"/>
        <path d="M4606 5049 l-26 -20 0 -915 c0 -897 0 -914 20 -934 40 -40 110 -35 138 11 10 15 13 214 12 912 0 491 0 897 0 903 0 6 -11 23 -25 38 -30 33 -81 35 -119 5z"/>
        <path d="M4929 5060 c-23 -13 -42 -65 -35 -92 3 -13 34 -62 68 -110 35 -48 83 -117 108 -153 25 -36 66 -93 91 -128 25 -34 48 -67 50 -73 4 -10 27 -43 152 -215 31 -43 57 -83 57 -87 0 -5 17 -27 38 -50 63 -68 104 -55 174 51 26 40 73 108 103 152 31 44 67 96 80 115 13 19 37 53 53 75 16 22 51 72 77 110 82 118 144 208 180 259 19 26 35 57 35 68 0 92 -119 120 -172 40 -62 -94 -142 -209 -159 -228 -11 -11 -19 -23 -19 -27 0 -4 -19 -34 -42 -66 -90 -125 -161 -228 -200 -291 l-40 -64 -25 29 c-14 17 -57 80 -97 140 -39 61 -87 133 -107 160 -40 57 -129 185 -202 293 -27 40 -59 79 -71 87 -23 17 -73 19 -97 5z"/>
        <path d="M6337 5060 c-46 -29 -46 -8 -41 -958 3 -681 7 -897 16 -912 28 -45 90 -48 136 -7 l22 20 0 912 c0 887 -1 912 -19 929 -24 21 -90 30 -114 16z"/>
        <path d="M405 5014 l-25 -27 0 -892 0 -892 22 -20 c42 -38 61 -43 96 -26 18 9 37 24 43 35 14 26 13 1781 -1 1808 -25 47 -98 54 -135 14z"/>
        <path d="M732 5033 c-7 -3 -21 -21 -31 -42 -18 -33 -18 -39 -3 -66 12 -25 56 -88 90 -130 4 -5 21 -30 38 -55 77 -114 160 -234 179 -257 6 -7 30 -42 55 -79 25 -36 71 -102 103 -145 31 -44 57 -82 57 -85 0 -3 13 -23 29 -43 30 -38 99 -138 164 -236 22 -33 49 -68 61 -77 31 -26 76 -22 109 7 l27 26 0 571 0 571 -26 23 c-37 35 -87 32 -126 -7 l-31 -31 7 -360 c3 -208 11 -379 17 -404 7 -25 9 -47 6 -51 -13 -12 -56 8 -63 30 -4 12 -23 47 -43 77 -19 30 -40 63 -46 72 -18 31 -89 132 -132 190 -24 31 -43 59 -43 63 0 4 -19 32 -43 63 -56 76 -119 167 -135 197 -7 14 -17 25 -23 25 -5 0 -9 5 -9 11 0 6 -13 28 -30 49 -16 21 -30 43 -30 48 0 33 -84 63 -128 45z"/>
        <path d="M1811 5023 l-22 -18 0 -890 c1 -490 1 -900 1 -912 0 -16 11 -28 38 -42 35 -18 41 -18 68 -5 16 8 35 22 42 31 9 13 12 211 12 910 l0 894 -25 24 c-29 30 -83 33 -114 8z"/>
        <path d="M8576 5015 c-14 -15 -26 -33 -26 -39 0 -6 0 -406 0 -888 -1 -674 2 -882 12 -897 13 -22 50 -41 78 -41 10 0 32 12 49 26 l31 26 0 822 c0 451 0 828 0 837 0 15 21 17 223 14 243 -4 406 -19 448 -41 16 -8 35 -14 43 -14 25 0 135 -60 202 -110 52 -39 164 -158 164 -174 0 -3 13 -27 28 -53 26 -45 37 -75 76 -212 21 -70 21 -280 1 -336 -8 -22 -15 -50 -15 -62 0 -38 -75 -194 -124 -258 -83 -110 -209 -199 -346 -245 -90 -30 -260 -52 -376 -48 -105 3 -106 3 -130 -25 -39 -46 -30 -107 20 -131 28 -13 59 -14 227 -5 106 6 210 16 229 23 19 7 60 21 90 30 65 21 138 54 146 67 3 5 12 9 20 9 35 0 190 136 255 225 55 73 139 237 139 270 0 13 6 39 14 57 25 58 41 258 28 346 -7 42 -12 93 -12 112 -1 19 -7 46 -15 60 -8 14 -14 36 -15 49 0 28 -90 217 -117 246 -11 11 -38 44 -61 74 -24 30 -64 70 -90 89 -26 20 -50 40 -53 45 -7 10 -27 22 -104 62 -27 14 -57 30 -65 34 -23 13 -113 41 -131 41 -9 0 -31 7 -48 16 -28 14 -89 17 -401 22 l-368 5 -26 -28z"/>
        <path d="M10474 5032 c-5 -4 -18 -18 -27 -32 -16 -22 -17 -94 -17 -905 l0 -880 25 -28 c14 -15 34 -27 43 -27 9 0 250 -1 534 -1 361 0 524 3 538 11 43 23 49 100 10 135 -17 15 -64 17 -495 18 l-477 2 2 831 1 830 -25 27 c-19 20 -35 27 -63 27 -21 0 -43 -4 -49 -8z"/>
        <path d="M10810 5022 l-22 -18 0 -732 1 -733 23 -19 c22 -18 43 -19 381 -20 311 0 361 2 382 16 28 19 41 68 26 105 -19 51 -49 55 -351 49 -151 -3 -281 -2 -289 1 -11 5 -13 118 -12 662 l2 657 -25 25 c-30 30 -83 33 -116 7z"/>
        <path d="M3255 4725 c-5 -2 -44 -9 -85 -16 -87 -14 -183 -56 -255 -110 -49 -37 -153 -154 -167 -187 -26 -64 12 -132 73 -132 31 1 79 28 79 45 0 27 141 165 168 165 4 0 13 5 19 11 25 25 119 48 195 49 165 0 319 -99 399 -257 33 -67 34 -71 33 -193 0 -121 -1 -127 -33 -191 -28 -56 -118 -169 -135 -169 -3 0 -24 -12 -48 -28 -198 -127 -451 -57 -600 167 -26 38 -31 41 -72 41 -58 0 -90 -36 -83 -92 9 -69 141 -217 242 -271 127 -68 270 -91 409 -66 131 24 273 106 347 201 19 24 36 45 40 48 12 10 77 146 93 195 25 77 22 268 -5 347 -50 149 -131 257 -258 341 -38 26 -74 47 -80 47 -6 0 -25 6 -43 14 -49 21 -207 49 -233 41z"/>
        <path d="M8922 4677 c-22 -23 -22 -27 -22 -414 l0 -391 34 -21 c45 -28 62 -26 98 9 l30 30 -3 318 -3 317 99 -2 c102 -3 158 -17 226 -59 38 -24 119 -112 119 -129 0 -6 5 -16 11 -22 46 -46 67 -277 33 -359 -51 -126 -106 -191 -206 -244 -62 -33 -65 -33 -218 -37 -175 -4 -215 -15 -225 -64 -8 -35 2 -68 26 -91 16 -16 39 -18 174 -18 116 0 165 4 192 15 19 8 44 15 54 15 41 0 145 67 217 138 93 94 136 181 162 329 17 99 17 107 0 207 -27 156 -91 274 -196 361 -55 46 -145 95 -194 106 -19 5 -55 13 -80 18 -25 6 -104 10 -176 11 -124 0 -132 -1 -152 -23z"/>
        <path d="M4974 4406 c-17 -8 -34 -21 -38 -31 -3 -9 -6 -277 -6 -596 0 -563 1 -580 20 -599 28 -28 62 -34 103 -16 29 12 37 21 43 52 6 30 -1 668 -9 794 -1 25 2 35 14 38 12 2 35 -28 79 -100 35 -57 76 -119 92 -139 15 -20 28 -42 28 -48 0 -7 7 -14 15 -17 8 -4 15 -11 15 -16 0 -5 20 -36 45 -68 25 -32 45 -62 45 -66 0 -4 16 -27 36 -50 56 -70 104 -56 173 49 69 104 97 144 138 199 24 31 43 58 43 61 0 2 20 35 45 73 25 37 45 72 45 76 0 19 39 50 56 44 12 -5 15 -14 10 -39 -10 -47 -20 -749 -12 -791 12 -65 97 -85 146 -36 19 19 20 36 20 594 0 316 -4 585 -9 598 -21 56 -124 50 -154 -9 -8 -15 -23 -38 -34 -50 -10 -12 -38 -51 -63 -87 -25 -36 -65 -94 -90 -129 -25 -36 -52 -75 -60 -87 -8 -12 -29 -41 -46 -64 -42 -57 -85 -124 -109 -168 -11 -21 -23 -38 -28 -38 -10 0 -46 41 -47 52 0 7 -96 151 -201 301 -29 43 -58 86 -64 95 -5 9 -29 42 -52 74 -24 31 -43 59 -43 63 0 18 -55 75 -82 84 -17 6 -31 11 -32 11 -1 -1 -15 -7 -32 -14z"/>
        <path d="M757 4375 l-27 -26 0 -574 c0 -559 1 -576 20 -595 30 -30 65 -35 102 -13 l33 19 1 424 c0 290 4 425 11 427 10 4 53 -47 53 -61 0 -12 182 -282 241 -357 16 -20 29 -40 29 -43 0 -4 18 -30 39 -59 42 -56 87 -120 179 -258 57 -85 85 -109 129 -109 36 0 73 43 73 84 0 37 0 36 -200 321 -54 77 -125 177 -157 223 -32 46 -79 112 -105 147 -27 35 -48 67 -48 71 0 3 -13 23 -29 43 -27 35 -67 92 -175 251 -28 41 -60 83 -71 92 -29 25 -66 22 -98 -7z"/>
        <path d="M7468 4139 c-63 -32 -62 -76 3 -206 53 -106 53 -107 -28 -100 -98 8 -122 1 -140 -40 -18 -45 -2 -100 34 -114 27 -10 294 -12 330 -3 13 4 32 22 44 41 20 33 21 36 5 69 -16 32 -27 58 -62 141 -9 21 -23 51 -30 66 -8 16 -14 35 -14 43 0 43 -46 99 -100 120 -3 1 -21 -6 -42 -17z"/>
        <path d="M7188 3478 c-13 -13 -32 -43 -42 -68 -10 -25 -26 -63 -34 -84 -37 -90 -10 -156 64 -156 47 0 62 13 88 80 10 25 21 52 26 60 6 12 41 15 214 15 115 0 211 -2 214 -5 4 -3 15 -30 26 -60 25 -75 40 -90 92 -90 59 0 89 36 80 98 -3 24 -12 56 -20 70 -8 15 -22 47 -32 72 -10 25 -27 55 -38 68 -19 22 -21 22 -316 22 -294 0 -297 0 -322 -22z"/>
        <path d="M1667 2753 c-13 -12 -7 -40 13 -58 11 -10 20 -24 20 -32 0 -7 4 -13 9 -13 6 0 11 -19 13 -42 2 -35 7 -43 23 -43 17 0 21 8 23 45 2 24 6 47 10 50 13 9 52 69 52 79 0 5 -6 11 -14 14 -17 7 -49 -19 -60 -47 -6 -18 -10 -16 -37 17 -31 37 -40 43 -52 30z"/>
        <path d="M2064 2724 c-26 -27 -34 -44 -34 -72 1 -95 127 -134 186 -57 36 47 32 86 -13 130 -50 49 -93 49 -139 -1z m105 -28 c7 -8 11 -32 9 -53 -3 -36 -5 -38 -41 -41 -33 -3 -38 0 -47 24 -16 42 4 84 40 84 15 0 33 -6 39 -14z"/>
        <path d="M3554 2750 c-35 -14 -64 -59 -64 -99 0 -57 43 -93 109 -93 63 0 81 14 81 62 0 29 -5 39 -24 48 -18 8 -28 7 -42 -3 -18 -13 -18 -14 0 -34 18 -19 18 -21 1 -27 -9 -4 -29 -3 -44 2 -52 18 -31 104 25 104 13 0 26 -4 29 -10 10 -16 23 -12 30 10 13 42 -42 64 -101 40z"/>
        <path d="M4297 2752 c-25 -5 -17 -36 10 -40 20 -3 22 -10 25 -75 3 -64 5 -72 23 -72 18 0 20 8 23 73 3 68 4 72 26 72 27 0 41 24 23 38 -11 10 -92 12 -130 4z"/>
        <path d="M4677 2752 c-16 -3 -17 -14 -15 -95 l3 -92 63 -3 c56 -3 62 -1 62 17 0 16 -8 20 -42 23 -30 2 -43 8 -43 18 0 10 10 15 27 15 15 1 31 4 35 8 13 14 -13 42 -36 39 -14 -2 -21 2 -21 12 0 10 9 16 24 16 35 0 56 10 56 26 0 8 -8 15 -17 16 -36 3 -79 3 -96 0z"/>
        <path d="M5944 2723 l-28 -37 -13 32 c-10 24 -19 32 -38 32 -18 0 -25 -5 -25 -20 0 -11 5 -20 10 -20 6 0 10 -5 10 -12 0 -6 7 -19 16 -29 9 -10 17 -36 18 -58 1 -22 5 -44 10 -48 14 -14 41 14 43 45 1 34 19 72 41 88 16 11 13 55 -4 61 -6 2 -24 -13 -40 -34z"/>
        <path d="M6503 2753 c-22 -8 -14 -31 15 -45 24 -12 27 -19 28 -68 2 -81 2 -82 27 -78 20 3 22 9 23 58 2 85 2 87 29 94 22 6 36 35 18 37 -35 5 -131 6 -140 2z"/>
        <path d="M6915 2751 c-33 -14 -56 -47 -62 -89 -4 -33 -1 -44 24 -72 26 -29 36 -33 77 -33 67 0 96 29 96 99 0 46 -4 55 -31 78 -31 26 -67 32 -104 17z m81 -66 c37 -56 -28 -114 -78 -68 -23 20 -23 47 -1 73 24 27 59 25 79 -5z"/>
        <path d="M7598 2732 c-27 -25 -31 -36 -31 -76 0 -68 33 -100 103 -99 29 0 56 5 61 10 6 6 9 30 7 54 -3 38 -6 44 -27 47 -34 5 -48 -13 -28 -36 20 -22 13 -32 -24 -32 -46 0 -66 61 -31 93 21 20 68 23 74 5 6 -17 28 0 28 22 0 47 -84 54 -132 12z"/>
        <path d="M8351 2739 c-26 -21 -51 -63 -51 -84 0 -6 7 -27 16 -44 34 -67 134 -77 176 -18 34 47 29 89 -15 132 -42 41 -88 46 -126 14z m99 -54 c20 -37 3 -79 -33 -83 -50 -6 -73 39 -47 89 16 29 63 25 80 -6z"/>
        <path d="M9501 2747 c-12 -12 -15 -144 -5 -171 5 -12 21 -16 65 -16 52 0 59 2 59 20 0 15 -9 21 -41 26 l-40 7 1 46 c3 75 1 89 -14 94 -7 3 -19 0 -25 -6z"/>
        <path d="M10132 2751 c-9 -5 -12 -33 -10 -97 l3 -89 58 -3 c45 -2 59 0 63 13 9 22 -1 29 -41 29 -19 0 -35 5 -36 11 0 5 0 35 1 66 1 57 -14 85 -38 70z"/>
        <path d="M10733 2753 c-18 -7 -16 -48 2 -67 8 -8 15 -20 15 -26 0 -6 9 -31 21 -56 25 -55 46 -55 73 1 11 22 25 51 32 65 22 46 21 75 -3 78 -15 2 -23 -3 -28 -20 -9 -31 -35 -88 -40 -88 -2 0 -9 18 -15 39 -12 46 -40 81 -57 74z"/>
        <path d="M11120 2745 c-6 -8 -10 -46 -8 -97 3 -75 5 -83 23 -83 18 0 20 8 23 91 2 73 0 93 -12 97 -8 3 -20 0 -26 -8z"/>
        <path d="M11840 2744 c-27 -17 -60 -66 -60 -89 0 -8 9 -30 21 -49 23 -40 71 -59 123 -49 37 7 46 18 46 60 0 41 -24 67 -51 53 -21 -12 -25 -25 -9 -35 21 -13 10 -35 -18 -35 -35 0 -52 16 -52 50 0 46 58 78 87 49 15 -15 33 -3 33 21 0 39 -73 53 -120 24z"/>
        <path d="M2457 2743 c-13 -13 -7 -110 9 -142 19 -38 52 -53 95 -44 41 8 61 54 57 131 -3 50 -6 57 -25 60 -21 3 -22 -1 -25 -70 -3 -70 -4 -73 -28 -73 -24 0 -25 3 -28 73 -3 68 -4 72 -26 72 -12 0 -26 -3 -29 -7z"/>
        <path d="M2855 2740 c-3 -5 -8 -45 -10 -89 -4 -68 -2 -79 13 -83 28 -8 42 2 42 29 0 31 22 26 30 -8 4 -15 14 -25 28 -27 28 -4 39 22 18 43 -20 21 -21 51 -1 59 21 8 19 42 -5 66 -21 21 -103 29 -115 10z m72 -54 c-4 -9 -11 -16 -17 -16 -11 0 -14 33 -3 44 11 10 26 -11 20 -28z"/>
        <path d="M3932 2667 c-23 -45 -42 -88 -42 -95 0 -19 35 -14 55 8 10 11 29 20 42 20 13 0 31 -9 40 -20 36 -41 66 -12 39 37 -15 29 -39 84 -50 116 -3 9 -14 17 -24 17 -13 0 -31 -23 -60 -83z m68 -19 c0 -16 -3 -19 -11 -11 -6 6 -8 16 -5 22 11 17 16 13 16 -11z"/>
        <path d="M4996 2742 c-2 -4 4 -25 14 -47 11 -22 19 -52 20 -66 0 -34 32 -74 52 -67 8 4 18 20 21 37 4 17 15 39 26 50 30 30 33 101 5 101 -24 0 -43 -30 -44 -67 0 -40 -17 -43 -26 -5 -13 54 -51 91 -68 64z"/>
        <path d="M5204 2714 c-4 -24 -14 -39 -31 -47 -21 -9 -24 -16 -21 -56 3 -41 5 -46 28 -46 21 0 26 6 30 36 4 19 14 46 23 59 9 14 17 39 17 57 0 26 -4 33 -20 33 -14 0 -21 -9 -26 -36z"/>
        <path d="M5522 2738 c-7 -7 -12 -22 -12 -34 0 -13 -6 -29 -13 -36 -22 -21 -49 -86 -42 -97 10 -17 34 -13 52 9 10 11 30 20 45 20 17 0 31 -7 38 -20 6 -11 17 -20 26 -20 22 0 29 28 11 48 -8 9 -18 28 -22 42 -25 88 -53 118 -83 88z"/>
        <path d="M7970 2662 c0 -101 1 -102 76 -102 31 0 46 5 51 15 7 20 -1 28 -30 31 -12 1 -25 3 -29 3 -4 1 -8 31 -10 69 -3 65 -4 67 -30 70 l-28 3 0 -89z"/>
        <path d="M8744 2737 c-3 -8 -4 -49 -2 -93 l3 -79 51 -3 c67 -4 89 15 78 67 -4 20 -6 47 -5 60 2 39 -26 61 -76 61 -27 0 -46 -5 -49 -13z m66 -42 c0 -8 -4 -17 -10 -20 -6 -4 -10 5 -10 20 0 15 4 24 10 20 6 -3 10 -12 10 -20z m19 -68 c13 -16 5 -27 -20 -27 -21 0 -33 15 -24 30 9 14 31 12 44 -3z"/>
        <path d="M9134 2674 c-19 -41 -34 -83 -32 -92 5 -25 35 -27 43 -3 9 30 75 30 82 1 5 -20 37 -28 48 -11 5 9 -13 61 -26 71 -3 3 -9 18 -13 34 -9 38 -35 76 -52 76 -8 0 -30 -34 -50 -76z m62 -30 c-5 -13 -10 -14 -18 -6 -6 6 -8 18 -4 28 5 13 10 14 18 6 6 -6 8 -18 4 -28z"/>
        <path d="M10456 2734 c-3 -9 -6 -44 -6 -79 0 -75 6 -95 29 -95 31 0 41 22 41 95 0 42 -5 76 -12 83 -17 17 -45 15 -52 -4z"/>
        <path d="M11388 2663 c-6 -91 0 -110 26 -100 12 5 16 20 16 59 l0 52 20 -20 c11 -11 29 -35 39 -54 10 -19 27 -36 38 -38 34 -5 44 20 41 105 -3 76 -4 78 -28 78 -22 0 -25 -4 -25 -40 0 -54 -23 -53 -49 3 -17 34 -26 42 -47 42 -26 0 -27 -1 -31 -87z"/>
    </g>
</svg>