<svg xmlns="http://www.w3.org/2000/svg" version="1.0" preserveAspectRatio="xMidYMid meet" viewBox="22 20 722 110.51">

    <g transform="translate(0.000000,145.000000) scale(0.100000,-0.100000)" fill="#000000" stroke="none">
        <path d="M4188 1233 c-8 -10 -104 -240 -212 -512 -138 -345 -196 -501 -192 -518 7 -27 49 -41 71 -23 8 7 92 207 187 446 94 239 175 434 178 434 4 0 84 -195 179 -433 94 -238 177 -439 183 -445 21 -21 58 -14 70 13 10 23 -9 78 -187 523 -109 273 -205 505 -213 515 -8 9 -23 17 -32 17 -9 0 -24 -8 -32 -17z"/>
        <path d="M1755 1234 c-170 -26 -311 -125 -386 -269 -49 -93 -64 -160 -63 -280 0 -157 46 -275 148 -383 203 -216 587 -208 797 16 94 100 152 230 116 261 -34 28 -60 10 -102 -73 -112 -219 -349 -315 -581 -236 -175 60 -284 222 -284 419 1 270 181 451 449 451 192 -1 339 -97 422 -276 17 -38 36 -63 48 -67 27 -7 61 19 61 47 0 34 -63 154 -110 208 -53 61 -158 130 -240 158 -64 22 -206 34 -275 24z"/>
        <path d="M2603 1229 l-23 -8 0 -520 0 -520 21 -12 c16 -8 28 -8 45 0 l24 11 0 512 c0 282 -4 518 -8 524 -11 17 -35 22 -59 13z"/>
        <path d="M2770 1220 c-11 -11 -20 -24 -20 -30 0 -9 50 -84 230 -343 91 -131 121 -160 149 -142 23 13 331 465 331 484 0 25 -41 54 -63 45 -9 -3 -75 -91 -147 -195 -73 -104 -136 -191 -140 -194 -5 -3 -67 80 -140 185 -114 166 -151 210 -174 210 -3 0 -15 -9 -26 -20z"/>
        <path d="M3560 1220 c-19 -19 -20 -33 -20 -523 0 -475 1 -505 18 -520 24 -22 45 -21 65 1 15 17 17 68 17 525 l0 506 -22 15 c-29 20 -34 20 -58 -4z"/>
        <path d="M6497 1222 c-10 -10 -17 -24 -17 -31 0 -7 77 -135 170 -285 l170 -272 0 -230 c0 -241 2 -254 45 -254 43 0 45 12 45 272 l0 248 -167 268 c-91 147 -173 275 -181 285 -19 22 -45 22 -65 -1z"/>
        <path d="M6738 1229 c-10 -5 -18 -21 -18 -35 0 -25 174 -329 210 -368 37 -39 59 -18 167 166 56 95 105 181 108 190 7 18 -26 58 -49 58 -20 0 -45 -34 -122 -166 -37 -63 -70 -114 -73 -114 -4 0 -40 56 -80 125 -94 161 -101 169 -143 144z"/>
        <path d="M7368 1228 c-9 -7 -93 -136 -187 -287 l-171 -274 0 -247 c0 -265 1 -270 52 -270 21 0 31 6 38 26 6 14 10 125 10 247 l0 222 165 265 c91 146 165 272 165 282 0 19 -26 48 -44 48 -7 0 -19 -6 -28 -12z"/>
        <path d="M236 1204 c-14 -14 -16 -74 -16 -514 0 -440 2 -500 16 -514 18 -19 45 -21 62 -4 17 17 17 1019 0 1036 -17 17 -44 15 -62 -4z"/>
        <path d="M406 1199 c-8 -12 -12 -29 -8 -38 12 -33 433 -629 449 -635 8 -4 26 1 39 9 l24 15 0 319 c0 295 -1 319 -18 334 -24 22 -45 21 -65 -1 -15 -16 -17 -48 -17 -246 l0 -228 -167 238 c-91 132 -171 242 -177 246 -20 14 -45 8 -60 -13z"/>
        <path d="M1027 1208 c-16 -12 -17 -52 -15 -522 3 -463 5 -510 20 -519 12 -8 24 -8 42 1 l26 12 0 509 c0 494 -1 511 -19 521 -25 13 -34 13 -54 -2z"/>
        <path d="M4823 1209 c-10 -10 -13 -128 -13 -521 l0 -508 24 -11 c17 -8 29 -8 45 0 21 12 21 13 21 481 l0 470 163 0 c168 0 215 -8 293 -48 94 -48 175 -151 204 -261 16 -61 15 -188 -3 -248 -59 -198 -209 -303 -432 -303 -102 0 -125 -10 -125 -55 0 -40 31 -49 149 -41 120 7 176 22 261 67 239 127 330 456 199 718 -55 110 -171 206 -300 246 -72 23 -467 34 -486 14z"/>
        <path d="M5882 1208 c-9 -9 -12 -138 -12 -520 0 -491 1 -508 19 -518 27 -14 585 -14 612 0 23 13 25 53 3 74 -13 14 -53 16 -280 16 l-264 0 0 470 c0 454 -1 470 -19 480 -26 13 -44 13 -59 -2z"/>
        <path d="M6078 1209 c-17 -9 -18 -40 -18 -419 l0 -409 22 -15 c18 -13 56 -16 208 -16 201 0 230 7 230 54 0 43 -14 46 -197 46 l-173 0 0 373 c0 277 -3 376 -12 385 -15 15 -37 15 -60 1z"/>
        <path d="M1738 1023 c-69 -26 -134 -77 -168 -130 -17 -26 -30 -51 -30 -55 0 -11 38 -48 50 -48 6 0 36 27 68 60 68 69 110 90 187 90 140 0 247 -105 248 -244 0 -81 -24 -136 -83 -189 -91 -82 -196 -89 -302 -20 -20 14 -49 42 -64 64 -32 46 -65 52 -90 14 -15 -23 -15 -27 6 -59 34 -56 116 -123 173 -143 31 -10 80 -17 122 -17 125 0 242 75 301 191 26 52 29 68 29 153 0 82 -4 103 -26 151 -56 119 -164 190 -299 196 -54 2 -88 -2 -122 -14z"/>
        <path d="M5016 1014 c-14 -13 -16 -48 -16 -228 0 -223 3 -236 45 -236 42 0 45 15 45 202 l0 178 53 0 c66 0 146 -36 179 -81 86 -115 58 -293 -56 -363 -43 -27 -60 -31 -148 -36 -73 -4 -101 -9 -108 -20 -15 -24 -12 -45 10 -65 17 -16 32 -17 107 -12 126 9 177 29 243 96 102 104 129 274 63 405 -22 43 -93 115 -133 136 -79 40 -254 55 -284 24z"/>
        <path d="M2792 854 c-22 -15 -22 -16 -22 -338 0 -300 1 -324 18 -339 24 -22 45 -21 65 1 15 16 17 49 17 252 l0 234 106 -152 c85 -123 110 -152 129 -152 27 0 45 22 161 190 l79 115 3 -243 2 -243 24 -10 c17 -8 29 -8 45 0 21 12 21 15 21 346 0 326 0 335 -20 345 -12 6 -29 9 -39 5 -9 -3 -73 -86 -142 -185 -68 -98 -128 -178 -133 -176 -6 1 -61 76 -123 167 -103 149 -143 199 -162 199 -4 0 -17 -7 -29 -16z"/>
        <path d="M430 840 c-19 -19 -20 -33 -20 -328 0 -262 2 -311 16 -330 18 -27 45 -28 67 -4 15 16 17 48 17 247 l0 228 156 -224 c175 -250 190 -269 216 -269 27 0 52 44 38 69 -23 44 -413 597 -432 614 -26 22 -34 21 -58 -3z"/>
        <path d="M4185 696 c-15 -22 -14 -28 9 -85 l25 -61 -29 0 c-70 0 -109 -42 -74 -81 14 -16 31 -19 105 -19 89 0 119 11 119 45 0 20 -71 188 -88 208 -21 24 -49 21 -67 -7z"/>
        <path d="M4036 335 c-8 -9 -23 -41 -33 -71 -20 -65 -11 -89 33 -89 24 0 33 7 50 40 l20 40 115 3 114 3 20 -43 c21 -46 53 -60 81 -38 20 18 17 50 -11 114 l-25 56 -174 0 c-143 0 -177 -3 -190 -15z"/>
    </g>
</svg>